[h264 @ 0x55d50d31eb80] Reinit context to 480x864, pix_fmt: yuv420p
Input #0, mov,mp4,m4a,3gp,3g2,mj2, from '/var/www/html/project/media/video/original/vitella.mp4':
  Metadata:
    major_brand     : mp42
    minor_version   : 0
    compatible_brands: mp42mp41
    creation_time   : 2025-11-07T17:16:41.000000Z
  Duration: 00:01:49.40, start: 0.000000, bitrate: 3260 kb/s
    Stream #0:0(eng): Video: h264 (Main), 1 reference frame (avc1 / 0x31637661), yuv420p(left), 478x850 (480x864) [SAR 1:1 DAR 239:425], 3066 kb/s, 30 fps, 30 tbr, 30k tbn, 60 tbc (default)
    Metadata:
      creation_time   : 2025-11-07T17:16:41.000000Z
      handler_name    : ?Mainconcept Video Media Handler
      encoder         : AVC Coding
    Stream #0:1(eng): Audio: aac (LC) (mp4a / 0x6134706D), 48000 Hz, stereo, fltp, 189 kb/s (default)
    Metadata:
      creation_time   : 2025-11-07T17:16:42.000000Z
      handler_name    : #Mainconcept MP4 Sound Media Handler
Input #1, png_pipe, from '/var/www/html/project/static/images/templates/logo_vertical.png':
  Duration: N/A, bitrate: N/A
    Stream #1:0: Video: png, 1 reference frame, rgba(pc), 1920x1080 [SAR 2835:2835 DAR 16:9], 25 tbr, 25 tbn, 25 tbc
[h264 @ 0x55d50d3a8340] Reinit context to 1280x720, pix_fmt: yuv420p
Input #2, mov,mp4,m4a,3gp,3g2,mj2, from '/var/www/html/project/static/images/templates/Codino.mp4':
  Metadata:
    major_brand     : mp42
    minor_version   : 1
    compatible_brands: isommp41mp42
    creation_time   : 2021-07-11T07:02:58.000000Z
  Duration: 00:00:02.00, start: 0.000000, bitrate: 1007 kb/s
    Stream #2:0(ita): Audio: aac (LC) (mp4a / 0x6134706D), 44100 Hz, stereo, fltp, 102 kb/s (default)
    Metadata:
      creation_time   : 2021-07-11T07:02:58.000000Z
      handler_name    : Core Media Audio
    Stream #2:1(und): Video: h264 (High), 1 reference frame (avc1 / 0x31637661), yuv420p(tv, bt709, progressive, left), 1280x720 [SAR 1:1 DAR 16:9], 813 kb/s, 25 fps, 25 tbr, 25k tbn, 50k tbc (default)
    Metadata:
      creation_time   : 2021-07-11T07:02:58.000000Z
      handler_name    : Core Media Video
[Parsed_scale_1 @ 0x55d50d33d3c0] w:1280 h:720 flags:'bilinear' interl:0
[Parsed_scale_4 @ 0x55d50d43cd80] w:-1 h:720 flags:'bilinear' interl:0
[Parsed_scale_7 @ 0x55d50d321340] w:1280 h:720 flags:'bilinear' interl:0
[Parsed_scale_9 @ 0x55d50d343ec0] w:1280 h:720 flags:'bilinear' interl:0
Stream mapping:
  Stream #0:0 (h264) -> split
  Stream #0:1 (aac) -> concat:in0:a0
  Stream #1:0 (png) -> scale
  Stream #2:0 (aac) -> concat:in1:a0
  Stream #2:1 (h264) -> scale
  concat:out:v0 -> Stream #0:0 (libx264)
  concat:out:a0 -> Stream #0:1 (aac)
Press [q] to stop, [?] for help
[h264 @ 0x55d50d388500] Reinit context to 480x864, pix_fmt: yuv420p
[h264 @ 0x55d50d805940] Reinit context to 1280x720, pix_fmt: yuv420p
[Parsed_scale_1 @ 0x55d50d40cd00] w:1280 h:720 flags:'bilinear' interl:0
[Parsed_scale_4 @ 0x55d50e30b200] w:-1 h:720 flags:'bilinear' interl:0
[Parsed_scale_7 @ 0x55d50e30db80] w:1280 h:720 flags:'bilinear' interl:0
[Parsed_scale_9 @ 0x55d50e30f240] w:1280 h:720 flags:'bilinear' interl:0
[graph 0 input from stream 0:0 @ 0x55d50e313a40] w:478 h:850 pixfmt:yuv420p tb:1/30000 fr:30/1 sar:1/1 sws_param:flags=2
[graph 0 input from stream 1:0 @ 0x55d50e314ac0] w:1920 h:1080 pixfmt:rgba tb:1/25 fr:25/1 sar:2835/2835 sws_param:flags=2
[graph 0 input from stream 2:1 @ 0x55d50e30eb40] w:1280 h:720 pixfmt:yuv420p tb:1/25000 fr:25/1 sar:1/1 sws_param:flags=2
[graph_0_in_0_1 @ 0x55d50e30a180] tb:1/48000 samplefmt:fltp samplerate:48000 chlayout:0x3
[graph_0_in_2_0 @ 0x55d50e310240] tb:1/44100 samplefmt:fltp samplerate:44100 chlayout:0x3
[Parsed_concat_12 @ 0x55d50e311ac0] auto-inserting filter 'auto_resampler_0' between the filter 'graph_0_in_2_0' and the filter 'Parsed_concat_12'
[Parsed_scale_1 @ 0x55d50d40cd00] w:478 h:850 fmt:yuv420p sar:1/1 -> w:1280 h:720 fmt:yuv420p sar:2151/6800 flags:0x2
[Parsed_boxblur_2 @ 0x55d50d40c240] luma_radius:36 luma_power:1 chroma_radius:18 chroma_power:1 alpha_radius:36 alpha_power:1 w:1280 chroma_w:640 h:720 chroma_h:360
[Parsed_setsar_3 @ 0x55d50e30a280] w:1280 h:720 sar:2151/6800 dar:239/425 -> sar:1/1 dar:16/9
[Parsed_scale_4 @ 0x55d50e30b200] w:478 h:850 fmt:yuv420p sar:1/1 -> w:405 h:720 fmt:yuva420p sar:3824/3825 flags:0x2
[Parsed_setsar_5 @ 0x55d50e3083c0] w:405 h:720 sar:3824/3825 dar:239/425 -> sar:1/1 dar:9/16
[Parsed_overlay_6 @ 0x55d50e30c780] main w:1280 h:720 fmt:yuv420p overlay w:405 h:720 fmt:yuva420p
[Parsed_overlay_6 @ 0x55d50e30c780] [framesync @ 0x55d50e30cda8] Selected 1/30000 time base
[Parsed_overlay_6 @ 0x55d50e30c780] [framesync @ 0x55d50e30cda8] Sync level 2
[Parsed_scale_7 @ 0x55d50e30db80] w:1920 h:1080 fmt:rgba sar:2835/2835 -> w:1280 h:720 fmt:yuva420p sar:1/1 flags:0x2
[Parsed_setsar_8 @ 0x55d50e30e640] w:1280 h:720 sar:1/1 dar:16/9 -> sar:1/1 dar:16/9
[Parsed_overlay_11 @ 0x55d50e310a40] main w:1280 h:720 fmt:yuv420p overlay w:1280 h:720 fmt:yuva420p
[Parsed_overlay_11 @ 0x55d50e310a40] [framesync @ 0x55d50e310b68] Selected 1/30000 time base
[Parsed_overlay_11 @ 0x55d50e310a40] [framesync @ 0x55d50e310b68] Sync level 2
[Parsed_scale_9 @ 0x55d50e30f240] w:1280 h:720 fmt:yuv420p sar:1/1 -> w:1280 h:720 fmt:yuv420p sar:1/1 flags:0x2
[Parsed_setsar_10 @ 0x55d50e30fd40] w:1280 h:720 sar:1/1 dar:16/9 -> sar:1/1 dar:16/9
[auto_resampler_0 @ 0x55d50e31d180] ch:2 chl:stereo fmt:fltp r:44100Hz -> ch:2 chl:stereo fmt:fltp r:48000Hz
[libx264 @ 0x55d50d43d0c0] using SAR=1/1
[libx264 @ 0x55d50d43d0c0] using cpu capabilities: MMX2 SSE2Fast SSSE3 SSE4.2 AVX FMA3 BMI2 AVX2
[libx264 @ 0x55d50d43d0c0] profile High, level 3.1
[libx264 @ 0x55d50d43d0c0] 264 - core 155 r2917 0a84d98 - H.264/MPEG-4 AVC codec - Copyleft 2003-2018 - http://www.videolan.org/x264.html - options: cabac=1 ref=1 deblock=1:0:0 analyse=0x3:0x113 me=hex subme=2 psy=1 psy_rd=1.00:0.00 mixed_ref=0 me_range=16 chroma_me=1 trellis=0 8x8dct=1 cqm=0 deadzone=21,11 fast_pskip=1 chroma_qp_offset=0 threads=22 lookahead_threads=5 sliced_threads=0 nr=0 decimate=1 interlaced=0 bluray_compat=0 constrained_intra=0 bframes=3 b_pyramid=2 b_adapt=1 b_bias=0 direct=1 weightb=1 open_gop=0 weightp=1 keyint=250 keyint_min=25 scenecut=40 intra_refresh=0 rc_lookahead=10 rc=crf mbtree=1 crf=18.0 qcomp=0.60 qpmin=0 qpmax=69 qpstep=4 ip_ratio=1.40 aq=1:1.00
Output #0, mp4, to '/var/www/html/project/media/video/watermarks/vitella.mp4':
  Metadata:
    major_brand     : mp42
    minor_version   : 0
    compatible_brands: mp42mp41
    encoder         : Lavf58.29.100
    Stream #0:0: Video: h264 (libx264), 1 reference frame (avc1 / 0x31637661), yuv420p(progressive), 1280x720 [SAR 1:1 DAR 16:9], q=-1--1, 30 fps, 15360 tbn, 30 tbc (default)
    Metadata:
      encoder         : Lavc58.54.100 libx264
    Side data:
      cpb: bitrate max/min/avg: 0/0/0 buffer size: 0 vbv_delay: -1
    Stream #0:1: Audio: aac (LC) (mp4a / 0x6134706D), 48000 Hz, stereo, fltp, delay 1024, 128 kb/s (default)
    Metadata:
      encoder         : Lavc58.54.100 aac
[Parsed_overlay_6 @ 0x55d50e30c780] [framesync @ 0x55d50e30cda8] Sync level 1
[Parsed_overlay_6 @ 0x55d50e30c780] [framesync @ 0x55d50e30cda8] Sync level 0
[Parsed_overlay_11 @ 0x55d50e310a40] [framesync @ 0x55d50e310b68] Sync level 0
[Parsed_concat_12 @ 0x55d50e311ac0] EOF on in0:v0, 1 streams left in segment.
[Parsed_concat_12 @ 0x55d50e311ac0] EOF on in0:a0, 0 streams left in segment.
[Parsed_concat_12 @ 0x55d50e311ac0] Segment finished at pts=109376000
[Parsed_concat_12 @ 0x55d50e311ac0] EOF on in1:v0, 1 streams left in segment.
[Parsed_concat_12 @ 0x55d50e311ac0] EOF on in1:a0, 0 streams left in segment.
[Parsed_concat_12 @ 0x55d50e311ac0] Segment finished at pts=111394687
No more output streams to write to, finishing.
frame= 3331 fps= 62 q=-1.0 Lsize=   81845kB time=00:01:51.40 bitrate=6018.4kbits/s speed=2.06x    
[AVIOContext @ 0x55d50d31cf80] Statistics: 0 seeks, 107 writeouts
video:79976kB audio:1748kB subtitle:0kB other streams:0kB global headers:0kB muxing overhead: 0.147946%
Input file #0 (/var/www/html/project/media/video/original/vitella.mp4):
  Input stream #0:0 (video): 3281 packets read (41923672 bytes); 3281 frames decoded; 
  Input stream #0:1 (audio): 5127 packets read (2588601 bytes); 5127 frames decoded (5250048 samples); 
  Total: 8408 packets (44512273 bytes) demuxed
Input file #1 (/var/www/html/project/static/images/templates/logo_vertical.png):
  Input stream #1:0 (video): 1 packets read (93903 bytes); 1 frames decoded; 
  Total: 1 packets (93903 bytes) demuxed
Input file #2 (/var/www/html/project/static/images/templates/Codino.mp4):
  Input stream #2:0 (audio): 89 packets read (26579 bytes); 87 frames decoded (89024 samples); 
  Input stream #2:1 (video): 50 packets read (203365 bytes); 50 frames decoded; 
  Total: 139 packets (229944 bytes) demuxed
Output file #0 (/var/www/html/project/media/video/watermarks/vitella.mp4):
  Output stream #0:0 (video): 3331 frames encoded; 3331 packets muxed (81895593 bytes); 
  Output stream #0:1 (audio): 5222 frames encoded (5346945 samples); 5223 packets muxed (1789502 bytes); 
  Total: 8554 packets (83685095 bytes) muxed
[AVIOContext @ 0x55d50d320a80] Statistics: 2 seeks, 323 writeouts
[libx264 @ 0x55d50d43d0c0] frame I:17    Avg QP:15.45  size:105533
[libx264 @ 0x55d50d43d0c0] frame P:862   Avg QP:18.82  size: 49941
[libx264 @ 0x55d50d43d0c0] frame B:2452  Avg QP:21.63  size: 15111
[libx264 @ 0x55d50d43d0c0] consecutive B-frames:  1.3%  1.0%  2.0% 95.7%
[libx264 @ 0x55d50d43d0c0] mb I  I16..4: 21.5% 40.6% 37.8%
[libx264 @ 0x55d50d43d0c0] mb P  I16..4: 10.2% 18.0%  2.6%  P16..4: 22.8% 14.0% 13.9%  0.0%  0.0%    skip:18.6%
[libx264 @ 0x55d50d43d0c0] mb B  I16..4:  1.6%  1.3%  0.0%  B16..8: 18.3%  9.7%  4.6%  direct:10.5%  skip:54.0%  L0:34.3% L1:41.2% BI:24.5%
[libx264 @ 0x55d50d43d0c0] 8x8 transform intra:54.5% inter:16.5%
[libx264 @ 0x55d50d43d0c0] coded y,uvDC,uvAC intra: 37.3% 37.2% 3.2% inter: 18.4% 10.1% 0.4%
[libx264 @ 0x55d50d43d0c0] i16 v,h,dc,p: 22% 34% 11% 33%
[libx264 @ 0x55d50d43d0c0] i8 v,h,dc,ddl,ddr,vr,hd,vl,hu: 16% 41% 15%  4%  5%  4%  8%  3%  4%
[libx264 @ 0x55d50d43d0c0] i4 v,h,dc,ddl,ddr,vr,hd,vl,hu: 21% 17% 15%  7%  9%  8%  8%  8%  8%
[libx264 @ 0x55d50d43d0c0] i8c dc,h,v,p: 56% 25% 13%  6%
[libx264 @ 0x55d50d43d0c0] Weighted P-Frames: Y:5.0% UV:0.1%
[libx264 @ 0x55d50d43d0c0] kb/s:5882.90
[aac @ 0x55d50d321000] Qavg: 591.869
[AVIOContext @ 0x55d50d325f80] Statistics: 44577843 bytes read, 1 seeks
[AVIOContext @ 0x55d50d32e880] Statistics: 93903 bytes read, 0 seeks
[AVIOContext @ 0x55d50d330f40] Statistics: 1530915 bytes read, 42 seeks
